<?xml version="1.0" standalone="no"?>
<!DOCTYPE svg PUBLIC "-//W3C//DTD SVG 20010904//EN"
 "http://www.w3.org/TR/2001/REC-SVG-20010904/DTD/svg10.dtd">
<svg version="1.0" xmlns="http://www.w3.org/2000/svg"
 width="500.000000pt" height="500.000000pt" viewBox="0 0 500.000000 500.000000"
 preserveAspectRatio="xMidYMid meet">

<g transform="translate(0.000000,500.000000) scale(0.100000,-0.100000)"
fill="#000000" stroke="none">
<path d="M2865 4072 c-40 -14 -73 -44 -94 -85 -14 -27 -39 -138 -71 -322 -28
-154 -59 -323 -69 -375 -11 -52 -26 -131 -35 -175 -9 -44 -22 -109 -30 -145
-7 -36 -17 -86 -20 -112 l-7 -48 -155 0 -154 0 0 70 0 70 44 0 c55 0 76 24 76
87 l0 43 83 0 c87 0 107 8 107 45 0 37 -20 45 -107 45 l-83 0 0 55 0 55 83 0
c88 0 107 8 107 46 0 41 -25 54 -106 54 l-74 0 0 55 0 55 78 0 c82 0 102 9
102 45 0 36 -20 45 -102 45 l-78 0 0 29 c0 68 -33 110 -86 111 -39 0 -44 12
-44 95 0 84 -28 115 -74 82 -14 -10 -18 -29 -19 -88 l-2 -74 -51 -3 -51 -3 -5
77 c-4 59 -9 80 -24 91 -23 17 -35 16 -59 -1 -16 -12 -20 -29 -23 -95 l-4 -81
-49 0 -49 0 0 79 c0 83 -12 111 -48 111 -33 0 -39 -16 -47 -102 l-7 -88 -28 0
c-65 0 -100 -37 -100 -105 l0 -35 -83 0 c-88 0 -107 -8 -107 -46 0 -34 20 -43
110 -46 l85 -3 0 -50 0 -50 -85 -5 c-47 -3 -91 -9 -97 -13 -16 -10 -17 -59 -1
-75 8 -8 45 -12 101 -12 l88 0 -3 -52 -3 -53 -85 -3 c-90 -3 -110 -12 -110
-46 0 -38 19 -46 107 -46 l83 0 0 -41 c0 -64 12 -77 78 -84 l57 -7 -3 -69 -4
-69 -152 0 -152 0 -54 168 c-29 92 -64 200 -77 241 -30 91 -62 143 -105 169
-36 22 -260 82 -307 82 -18 0 -40 -11 -60 -29 -25 -23 -31 -37 -31 -69 0 -66
44 -93 220 -132 30 -7 63 -19 72 -28 10 -8 43 -94 74 -191 31 -97 69 -214 84
-261 57 -170 220 -680 280 -875 74 -239 98 -311 116 -346 15 -29 120 -129 136
-129 6 0 6 -6 -2 -15 -7 -8 -18 -15 -25 -15 -18 0 -80 -71 -105 -119 -27 -55
-27 -155 0 -214 78 -165 303 -206 433 -80 61 59 81 106 81 193 0 79 -9 104
-63 163 l-25 27 464 0 463 0 -20 -23 c-49 -52 -63 -89 -63 -165 0 -84 22 -141
73 -189 114 -110 284 -108 386 2 52 57 71 104 71 176 0 66 -25 132 -67 174
l-26 25 28 0 c60 0 115 60 101 114 -3 13 -14 34 -25 47 l-19 24 -754 5 -753 5
-47 27 c-47 29 -82 74 -98 128 l-9 30 810 0 c612 0 820 3 856 12 35 9 62 27
100 64 60 60 54 40 173 524 46 184 83 357 84 383 1 42 -3 52 -27 73 -25 21
-37 24 -118 24 -64 0 -89 3 -89 12 0 7 16 94 36 193 32 161 75 383 104 535 13
67 25 125 40 207 14 70 10 98 -21 137 -34 44 -68 54 -286 91 -114 19 -264 46
-333 60 -156 30 -200 35 -225 27z m387 -184 c57 -12 73 -24 59 -46 -5 -9 -24
-9 -71 -1 -71 11 -86 20 -77 43 8 19 14 19 89 4z m-268 -74 c45 -8 106 -19
136 -25 86 -17 140 -27 210 -39 36 -6 88 -15 115 -20 28 -5 69 -12 93 -15 33
-5 42 -11 42 -27 0 -19 -77 -451 -100 -558 -5 -25 -19 -97 -30 -160 -12 -63
-23 -125 -26 -137 l-4 -23 -375 -2 c-206 -2 -375 0 -375 4 0 4 16 92 35 195
19 104 39 213 45 243 5 30 19 102 30 160 11 58 25 132 31 165 6 33 15 79 20
102 5 23 9 54 9 68 0 14 7 42 15 61 11 27 19 35 32 30 9 -4 53 -14 97 -22z
m-741 -471 c3 -147 3 -271 0 -277 -6 -9 -533 0 -542 10 -7 6 -6 106 3 326 l8
197 137 4 c75 1 193 4 262 5 l126 2 6 -267z m-320 -400 c2 -5 2 -36 -1 -70
l-4 -63 -49 0 -49 0 0 70 0 70 49 0 c28 0 52 -3 54 -7z m210 -5 c-2 -5 -3 -35
-3 -68 l0 -60 -32 0 c-70 0 -73 4 -70 76 l4 65 51 -3 c29 -2 51 -6 50 -10z"/>
<path d="M1819 3503 c-9 -2 -19 -18 -23 -35 -8 -40 -8 -169 0 -247 l7 -61 167
0 168 0 6 31 c3 17 6 92 6 165 0 122 -2 134 -19 144 -19 10 -278 13 -312 3z"/>
</g>
</svg>
